HIERARCHY
ROOT Hips
{
  OFFSET 0 0 0
  CHANNELS 6 Xposition Yposition Zposition Zrotation Yrotation Xrotation
  JOINT LeftThigh
  {
    OFFSET 8.409438 0 -5.917753
    CHANNELS 3 Zrotation Yrotation Xrotation
    JOINT LeftLeg
    {
      OFFSET 0 0 -42.358652
      CHANNELS 3 Zrotation Yrotation Xrotation
      JOINT LeftFoot
      {
        OFFSET 0 0 -39.357303
        CHANNELS 3 Zrotation Yrotation Xrotation
      }
    }
  }
  JOINT RightThigh
  {
    OFFSET -8.409438 0 -5.917753
    CHANNELS 3 Zrotation Yrotation Xrotation
    JOINT RightLeg
    {
      OFFSET 0 0 -42.358652
      CHANNELS 3 Zrotation Yrotation Xrotation
      JOINT RightFoot
      {
        OFFSET 0 0 -39.357303
        CHANNELS 3 Zrotation Yrotation Xrotation
      }
    }
  }
  JOINT SpineLow
  {
    OFFSET 0 0 4.719101
    CHANNELS 3 Zrotation Yrotation Xrotation
    JOINT SpineMid
    {
      OFFSET 0 0 12.899191
      CHANNELS 3 Zrotation Yrotation Xrotation
      JOINT Chest
      {
        OFFSET 0 0 12.899191
        CHANNELS 3 Zrotation Yrotation Xrotation
        JOINT LeftShoulder
        {
          OFFSET 7.550562 1.41573 9.438202
          CHANNELS 3 Zrotation Yrotation Xrotation
          JOINT LeftArm
          {
            OFFSET 9.155056 0 4.247191
            CHANNELS 3 Zrotation Yrotation Xrotation
            JOINT LeftForearm
            {
              OFFSET 0 0 25.771955
              CHANNELS 3 Zrotation Yrotation Xrotation
              JOINT LeftHand
              {
                OFFSET 0 0 25.197169
                CHANNELS 3 Zrotation Yrotation Xrotation
              }
            }
          }
        }
        JOINT RightShoulder
        {
          OFFSET -7.550562 1.41573 9.438202
          CHANNELS 3 Zrotation Yrotation Xrotation
          JOINT RightArm
          {
            OFFSET -9.155056 0 4.247191
            CHANNELS 3 Zrotation Yrotation Xrotation
            JOINT RightForearm
            {
              OFFSET 0 0 -25.771955
              CHANNELS 3 Zrotation Yrotation Xrotation
              JOINT RightHand
              {
                OFFSET 0 0 -25.197169
                CHANNELS 3 Zrotation Yrotation Xrotation
              }
            }
          }
        }
        JOINT Neck
        {
          OFFSET 0 0 15.101124
          CHANNELS 3 Zrotation Yrotation Xrotation
          JOINT Head
          {
            OFFSET 0 0 11.325843
            CHANNELS 3 Zrotation Yrotation Xrotation
            End Site
            {
              OFFSET 0 0 14.157303
            }
          }
        }
      }
    }
  }
}
MOTION
Frames: 10
Frame Time: 0.0
0.0  89.887642  0.0  5.043223  -38.115078  -100.851409  23.079715  -14.350018  10.102647  -1.516094  4.020617  21.02216  -1.020217  -0.883882  1.014401  3.811388  6.842639  -14.31006  6.602542  3.983437  24.380884  1.956701  1.944534  -0.946401  -2.028185  -0.746465  0.313223  -5.554988  -2.012436  0.918319  -5.554989  -2.012436  0.918319  -13.653921  8.072521  5.039655  -20.585839  60.538681  49.074982  -26.766075  -23.108356  106.779131  104.660468  -11.144137  -22.243909  -22.510566  4.493149  25.048132  55.51492  18.877955  36.92153  7.137533  -10.230727  -113.021461  79.551267  6.166836  -26.054076  15.263162  5.717069  6.503964  11.378419  4.453979  4.734191  
0.0  89.887642  0.0  4.932575  -37.754802  -100.755091  22.850955  -14.386276  10.015459  -1.552622  3.99848  20.977312  -1.060165  -0.915141  1.039246  3.631845  6.847644  -14.24136  6.404692  4.018952  24.267274  1.960682  1.942591  -0.959009  -2.051491  -0.752674  0.316068  -5.618904  -2.028811  0.927325  -5.618904  -2.028811  0.927325  -13.190984  8.32233  5.193117  -20.389393  60.96236  49.220393  -26.566739  -22.938255  106.413716  104.544673  -11.292049  -21.752882  -22.208569  4.477103  25.110167  55.55408  19.090299  36.576458  6.893478  -9.964254  -112.930485  79.725232  5.769338  -25.908097  15.225523  5.695019  6.437774  11.351105  4.435351  4.685474  
0.0  89.887642  0.0  4.794  -37.413413  -100.566992  22.499865  -14.419183  9.785815  -1.358391  4.043783  21.07368  -1.139301  -0.931626  0.989135  3.459669  6.849631  -14.234655  6.253586  4.056635  24.125053  1.939832  1.910379  -0.949063  -2.075623  -0.778934  0.324078  -5.685598  -2.099482  0.952213  -5.685598  -2.099482  0.952213  -12.505267  8.70878  5.332591  -20.420267  61.386003  49.28495  -26.456645  -22.967264  106.311756  104.735723  -12.018583  -21.625109  -21.79969  4.49403  24.997002  55.131393  19.262014  35.878779  6.739529  -9.611691  -112.773877  80.11704  5.080411  -25.837076  15.222469  5.767125  6.332172  11.348759  4.486788  4.604392  
0.0  89.887642  0.0  4.666907  -37.00838  -100.45928  22.207788  -14.440485  9.662121  -1.319128  4.012062  21.081326  -1.165532  -0.971634  1.018089  3.231275  6.866518  -14.173039  6.035478  4.080133  24.014896  1.95383  1.908536  -0.964447  -2.076559  -0.776831  0.332155  -5.688372  -2.093028  0.974128  -5.688372  -2.093028  0.974128  -12.106003  8.894683  5.548185  -20.399298  62.00077  49.258785  -26.269451  -23.025224  105.882546  104.717303  -12.219432  -21.123376  -21.632823  4.401773  25.002483  55.139651  19.47579  35.455127  6.409151  -9.249885  -112.63756  80.549964  4.409429  -25.630257  15.05314  5.73959  6.239512  11.223061  4.461994  4.537158  
0.0  89.887642  0.0  4.534224  -36.612391  -100.236164  21.881717  -14.470606  9.405627  -1.120577  4.037601  21.170551  -1.277269  -0.975119  0.952902  3.087844  6.868597  -14.144876  5.701263  4.177362  23.80181  1.962611  1.879924  -0.950195  -2.086614  -0.776547  0.30742  -5.715085  -2.094237  0.906845  -5.715085  -2.094237  0.906845  -11.577362  9.120751  5.890953  -20.454747  62.704612  49.172982  -26.215056  -23.305668  105.886029  104.51463  -12.020936  -20.43683  -21.300485  4.392092  25.075056  54.83421  19.629455  34.707739  5.894802  -9.082327  -112.651095  81.191634  3.322552  -25.6543  14.971489  5.711811  6.216833  11.162447  4.439716  4.521612  
0.0  89.887642  0.0  4.404442  -36.168818  -100.086551  21.595514  -14.511059  9.221762  -1.062749  4.041837  21.204275  -1.341471  -1.012779  0.980293  2.809746  6.869568  -14.112829  5.535275  4.213715  23.673871  1.971838  1.873825  -0.958097  -2.072563  -0.732627  0.306373  -5.675882  -1.974585  0.899747  -5.675882  -1.974585  0.899746  -11.208657  9.103971  6.211974  -20.590024  63.461345  49.031284  -25.984535  -23.489872  105.332166  104.406721  -12.223011  -20.028246  -21.177806  4.093362  25.232057  54.889244  19.84301  34.129305  5.430925  -8.650082  -112.456016  81.642229  2.535156  -25.373924  14.692405  5.525538  6.092646  10.956849  4.293948  4.435749  
0.0  89.887642  0.0  4.249584  -35.640501  -99.822108  21.266844  -14.569416  8.937613  -1.134664  4.078677  21.166249  -1.348859  -0.946508  1.020451  2.478579  6.842979  -14.124634  5.273746  4.279827  23.459839  2.012242  1.874089  -0.931269  -2.088527  -0.707178  0.296506  -5.718817  -1.90571  0.87105  -5.718817  -1.90571  0.87105  -10.742145  9.208082  6.452351  -20.704608  64.280907  48.869897  -25.836417  -23.672905  105.06753  104.094416  -12.116921  -19.563925  -20.678044  3.949839  25.356348  54.07957  19.9241  32.764247  5.209298  -8.152852  -112.141734  82.281856  1.483279  -25.253138  14.545183  5.411322  5.976829  10.848978  4.203923  4.353057  
0.0  89.887642  0.0  4.150242  -35.163495  -99.705533  21.02668  -14.583325  8.739338  -1.200169  4.085924  21.217759  -1.413489  -0.97749  1.048214  2.157917  6.85332  -14.068564  5.186651  4.298589  23.323759  2.00413  1.874661  -0.944081  -2.126067  -0.696769  0.297469  -5.821306  -1.876678  0.873829  -5.821306  -1.876678  0.873829  -10.101198  9.518601  6.663724  -20.726628  65.164013  48.783796  -25.526645  -23.60285  104.373717  103.893189  -12.188412  -19.244886  -20.252025  3.753361  25.317859  54.317658  20.183716  32.328826  4.689944  -7.917949  -111.889858  82.935087  0.919003  -25.061543  14.394387  5.347177  5.878264  10.737598  4.15191  4.28202  
0.0  89.887642  0.0  3.998069  -34.520057  -99.401279  20.745938  -14.598187  8.416617  -1.214825  4.152651  21.331766  -1.554494  -0.990199  0.958176  1.669216  6.824759  -14.109495  5.184793  4.336561  23.141783  1.920775  1.855535  -0.937712  -2.144725  -0.678676  0.280122  -5.871548  -1.828553  0.825352  -5.871548  -1.828553  0.825352  -9.595328  9.784779  6.895808  -20.875571  66.100663  48.658662  -25.219144  -23.376115  103.77776  103.661457  -12.093088  -18.841861  -20.269452  3.296263  25.114139  54.032929  20.409538  31.583213  4.533363  -7.347791  -111.372478  83.771582  0.500782  -25.215817  14.119343  5.230287  5.750386  10.533953  4.05846  4.191288  
0.0  89.887642  0.0  3.911472  -33.964478  -99.305113  20.486272  -14.610336  8.210674  -1.369762  4.181934  21.376011  -1.580943  -1.017103  0.979907  1.244772  6.86065  -14.02952  5.118386  4.351741  22.986382  1.900368  1.858859  -0.953471  -2.126973  -0.643335  0.275125  -5.822333  -1.732714  0.808088  -5.822333  -1.732714  0.808089  -9.381684  10.02948  7.106542  -20.693367  67.216567  48.68587  -24.878417  -23.04718  102.985949  103.538143  -12.105689  -18.518449  -20.129485  2.900759  25.089434  54.135732  20.747303  31.23014  4.088365  -7.070603  -111.126063  84.813311  0.525557  -25.550634  13.695077  5.055878  5.647502  10.218875  3.921105  4.121754  
